# xmcd CD database file
#
# Track frame offsets:
#	150
#	13547
#	27728
#	37318
#	52039
#	66370
#	81268
#	101293
#	113854
#	132977
#	145058
#	157978
#	171828
#	184215
#	199134
#	214200
#	228903
#	241367
#	256001
#	270670
#
# Disc length: 3793 seconds
#
# Revision: 1
# Processed by: cddbd v1.5.2PL0 Copyright (c) Steve Scherf et al.
# Submitted via: CDex 1.50Beta7
#
DISCID=220ecf14
DTITLE=Tommy Dorsey - The Swing Of Things
DYEAR=1900
DGENRE=Jazz
TTITLE0=Opus One
TTITLE1=Song Of India
TTITLE2=Boogie Woogie
TTITLE3=Weary Blues
TTITLE4=Dedicated To You
TTITLE5=East Of The Sun
TTITLE6=I'm Getting Sentimental Over You
TTITLE7=Keepin' Out Of Mischief Now
TTITLE8=Hawaiian War Chant
TTITLE9=I'll Dream My Way To Heaven
TTITLE10=What Is This Thing Called Love
TTITLE11=Well Git It
TTITLE12=Lookin' Around Corners For You
TTITLE13=Marie
TTITLE14=Blue Skies
TTITLE15=On The Sunny Side Of The Street
TTITLE16=There Are Such Things
TTITLE17=Stardust
TTITLE18=Who'll Buy My Violets
TTITLE19=You're Here, You're There, You're Everywhere
EXTD=
EXTT0=
EXTT1=
EXTT2=
EXTT3=
EXTT4=
EXTT5=
EXTT6=
EXTT7=
EXTT8=
EXTT9=
EXTT10=
EXTT11=
EXTT12=
EXTT13=
EXTT14=
EXTT15=
EXTT16=
EXTT17=
EXTT18=
EXTT19=
PLAYORDER=
